# xmcd CD database file
#
# Track frame offsets:
#	150
#	12837
#	35272
#	50602
#	75012
#	89812
#	104920
#	121947
#	151990
#	177992
#	201425
#	235597
#	265437
#	291547
#
# Disc length: 4138 seconds
#
# Revision: 0
# Processed by: cddbd v1.5PL3 Copyright (c) Steve Scherf et al.
# Submitted via: CDex 1.50beta9
#
DISCID=c210280e
DTITLE=SBK - RED FLASH
DYEAR=2003
DGENRE=Hip-Hop
TTITLE0=Intro
TTITLE1=Stone age
TTITLE2=Back to the basic
TTITLE3=Bait
TTITLE4=Strike back
TTITLE5=Easy
TTITLE6=Dis off
TTITLE7=drain
TTITLE8=Breaks and comes
TTITLE9=Sabbath
TTITLE10=Figure it out -extended mix-
TTITLE11=Cynically
TTITLE12=I see you but you don't see me
TTITLE13=ladder
EXTD=YEAR: 2003
EXTT0=
EXTT1=
EXTT2=
EXTT3=
EXTT4=
EXTT5=
EXTT6=
EXTT7=
EXTT8=
EXTT9=
EXTT10=
EXTT11=
EXTT12=
EXTT13=
PLAYORDER=
